<?xml version="1.0" standalone="no"?>
<!DOCTYPE svg PUBLIC "-//W3C//DTD SVG 20010904//EN"
 "http://www.w3.org/TR/2001/REC-SVG-20010904/DTD/svg10.dtd">
<svg version="1.0" xmlns="http://www.w3.org/2000/svg"
 width="512.000000pt" height="512.000000pt" viewBox="0 0 512.000000 512.000000"
 preserveAspectRatio="xMidYMid meet">
<metadata>
Created by potrace 1.11, written by Peter Selinger 2001-2013
</metadata>
<g transform="translate(0.000000,512.000000) scale(0.100000,-0.100000)"
fill="#000000" stroke="none">
<path d="M2398 4706 c-16 -17 -371 -626 -500 -855 -16 -29 -44 -77 -60 -105
-17 -28 -38 -65 -48 -81 -36 -63 -365 -634 -415 -720 -49 -84 -328 -567 -372
-645 -11 -19 -40 -69 -65 -110 -25 -41 -56 -95 -70 -120 -14 -25 -160 -279
-325 -565 -355 -615 -404 -701 -420 -736 -10 -24 -5 -38 54 -142 l66 -116 141
-3 c77 -2 1111 -4 2297 -6 l2156 -3 55 93 c94 159 91 147 61 204 -14 27 -66
119 -116 204 -49 85 -99 171 -110 190 -51 91 -614 1064 -638 1105 -10 17 -24
41 -32 55 -7 14 -167 291 -354 615 -188 325 -350 606 -361 625 -11 19 -154
267 -318 550 -164 283 -307 532 -318 553 l-21 37 -134 -1 c-124 -1 -136 -3
-153 -23z m369 -1104 c116 -202 284 -493 373 -647 89 -154 172 -298 185 -320
25 -46 403 -699 508 -880 183 -316 414 -722 420 -737 6 -17 -21 -18 -476 -19
-265 0 -1037 -2 -1715 -3 -678 -2 -1234 0 -1237 3 -2 4 10 29 27 56 17 28 42
70 56 95 27 49 704 1222 1067 1850 123 212 233 404 246 427 174 305 316 543
324 543 6 0 105 -166 222 -368z"/>
</g>
</svg>
